<mxfile host="65bd71144e">
    <diagram id="ZIsLrHJgNXRA1_q-NFZV" name="第 1 页">
        <mxGraphModel dx="1158" dy="392" grid="1" gridSize="10" guides="1" tooltips="1" connect="1" arrows="1" fold="1" page="1" pageScale="1" pageWidth="1169" pageHeight="1654" math="0" shadow="0">
            <root>
                <mxCell id="0"/>
                <mxCell id="1" parent="0"/>
                <mxCell id="4" value="" style="edgeStyle=none;html=1;noEdgeStyle=1;orthogonal=1;" parent="1" source="2" target="3" edge="1">
                    <mxGeometry relative="1" as="geometry">
                        <Array as="points">
                            <mxPoint x="765.3703703703703" y="72"/>
                            <mxPoint x="765.3703703703703" y="148"/>
                        </Array>
                    </mxGeometry>
                </mxCell>
                <mxCell id="2" value="main&lt;br&gt;只管最简单调用" style="rounded=0;whiteSpace=wrap;html=1;" parent="1" vertex="1">
                    <mxGeometry x="705.3703703703703" width="120" height="60" as="geometry"/>
                </mxCell>
                <mxCell id="11" style="edgeStyle=none;html=1;exitX=0.5;exitY=1;exitDx=0;exitDy=0;entryX=0.5;entryY=0;entryDx=0;entryDy=0;noEdgeStyle=1;orthogonal=1;" parent="1" source="3" target="10" edge="1">
                    <mxGeometry relative="1" as="geometry">
                        <Array as="points">
                            <mxPoint x="758.4953703703703" y="238"/>
                            <mxPoint x="720" y="270"/>
                            <mxPoint x="720" y="430"/>
                            <mxPoint x="610" y="430"/>
                            <mxPoint x="610" y="590"/>
                            <mxPoint x="670" y="590"/>
                            <mxPoint x="670" y="750"/>
                            <mxPoint x="855" y="750"/>
                            <mxPoint x="855" y="910"/>
                            <mxPoint x="807.5" y="948"/>
                        </Array>
                    </mxGeometry>
                </mxCell>
                <mxCell id="21" style="edgeStyle=none;html=1;exitX=0.5;exitY=1;exitDx=0;exitDy=0;entryX=0.5;entryY=0;entryDx=0;entryDy=0;noEdgeStyle=1;orthogonal=1;" parent="1" source="3" target="20" edge="1">
                    <mxGeometry relative="1" as="geometry">
                        <Array as="points">
                            <mxPoint x="730.9953703703703" y="234"/>
                            <mxPoint x="460" y="270"/>
                            <mxPoint x="460" y="430"/>
                            <mxPoint x="460" y="430"/>
                            <mxPoint x="460" y="590"/>
                            <mxPoint x="460" y="590"/>
                            <mxPoint x="460" y="750"/>
                            <mxPoint x="460" y="750"/>
                            <mxPoint x="460" y="910"/>
                            <mxPoint x="452.5" y="948"/>
                        </Array>
                    </mxGeometry>
                </mxCell>
                <mxCell id="24" style="edgeStyle=none;html=1;exitX=0.5;exitY=1;exitDx=0;exitDy=0;entryX=0.5;entryY=0;entryDx=0;entryDy=0;noEdgeStyle=1;orthogonal=1;" parent="1" source="3" target="12" edge="1">
                    <mxGeometry relative="1" as="geometry">
                        <Array as="points">
                            <mxPoint x="717.2453703703703" y="232"/>
                            <mxPoint x="360" y="270"/>
                            <mxPoint x="360" y="430"/>
                            <mxPoint x="360" y="430"/>
                            <mxPoint x="360" y="590"/>
                            <mxPoint x="360" y="590"/>
                            <mxPoint x="360" y="750"/>
                            <mxPoint x="360" y="750"/>
                            <mxPoint x="360" y="910"/>
                            <mxPoint x="360" y="910"/>
                            <mxPoint x="360" y="1070"/>
                            <mxPoint x="458.3333333333333" y="1108"/>
                        </Array>
                    </mxGeometry>
                </mxCell>
                <mxCell id="40" style="edgeStyle=none;html=1;exitX=0.5;exitY=1;exitDx=0;exitDy=0;entryX=0.5;entryY=0;entryDx=0;entryDy=0;noEdgeStyle=1;orthogonal=1;" parent="1" source="3" target="28" edge="1">
                    <mxGeometry relative="1" as="geometry">
                        <Array as="points">
                            <mxPoint x="744.7453703703703" y="236"/>
                            <mxPoint x="630" y="308"/>
                        </Array>
                    </mxGeometry>
                </mxCell>
                <mxCell id="55" style="edgeStyle=none;html=1;exitX=0.5;exitY=1;exitDx=0;exitDy=0;entryX=0.5;entryY=0;entryDx=0;entryDy=0;noEdgeStyle=1;orthogonal=1;" parent="1" source="3" target="53" edge="1">
                    <mxGeometry relative="1" as="geometry">
                        <Array as="points">
                            <mxPoint x="772.2453703703703" y="238"/>
                            <mxPoint x="810" y="308"/>
                        </Array>
                    </mxGeometry>
                </mxCell>
                <mxCell id="70" style="edgeStyle=none;html=1;exitX=0.5;exitY=1;exitDx=0;exitDy=0;entryX=0.5;entryY=0;entryDx=0;entryDy=0;noEdgeStyle=1;orthogonal=1;" parent="1" source="3" target="66" edge="1">
                    <mxGeometry relative="1" as="geometry">
                        <Array as="points">
                            <mxPoint x="813.4953703703703" y="232"/>
                            <mxPoint x="1185" y="270"/>
                            <mxPoint x="1185" y="430"/>
                            <mxPoint x="1185" y="430"/>
                            <mxPoint x="1185" y="590"/>
                            <mxPoint x="1185" y="590"/>
                            <mxPoint x="1185" y="750"/>
                            <mxPoint x="1185" y="750"/>
                            <mxPoint x="1185" y="910"/>
                            <mxPoint x="1167.5" y="948"/>
                        </Array>
                    </mxGeometry>
                </mxCell>
                <mxCell id="83" style="edgeStyle=none;html=1;exitX=0.5;exitY=1;exitDx=0;exitDy=0;entryX=0.5;entryY=0;entryDx=0;entryDy=0;noEdgeStyle=1;orthogonal=1;" parent="1" source="3" target="79" edge="1">
                    <mxGeometry relative="1" as="geometry">
                        <Array as="points">
                            <mxPoint x="785.9953703703703" y="236"/>
                            <mxPoint x="960" y="308"/>
                        </Array>
                    </mxGeometry>
                </mxCell>
                <mxCell id="109" style="edgeStyle=none;html=1;exitX=0.5;exitY=1;exitDx=0;exitDy=0;entryX=0.5;entryY=0;entryDx=0;entryDy=0;" edge="1" parent="1" source="3" target="108">
                    <mxGeometry relative="1" as="geometry"/>
                </mxCell>
                <mxCell id="3" value="game&lt;br&gt;窗口、初始化、帧" style="rounded=0;whiteSpace=wrap;html=1;" parent="1" vertex="1">
                    <mxGeometry x="705.3703703703703" y="160" width="120" height="60" as="geometry"/>
                </mxCell>
                <mxCell id="7" value="debug&lt;br&gt;开发测试" style="rounded=0;whiteSpace=wrap;html=1;" parent="1" vertex="1">
                    <mxGeometry width="120" height="60" as="geometry"/>
                </mxCell>
                <mxCell id="94" style="edgeStyle=none;html=1;exitX=0.5;exitY=1;exitDx=0;exitDy=0;entryX=0.5;entryY=0;entryDx=0;entryDy=0;noEdgeStyle=1;orthogonal=1;" parent="1" source="10" target="91" edge="1">
                    <mxGeometry relative="1" as="geometry">
                        <Array as="points">
                            <mxPoint x="780" y="1032"/>
                            <mxPoint x="915" y="1070"/>
                            <mxPoint x="915" y="1230"/>
                            <mxPoint x="1036" y="1268"/>
                        </Array>
                    </mxGeometry>
                </mxCell>
                <mxCell id="10" value="keyboard&lt;br&gt;键盘输入" style="rounded=0;whiteSpace=wrap;html=1;" parent="1" vertex="1">
                    <mxGeometry x="720" y="960" width="120" height="60" as="geometry"/>
                </mxCell>
                <mxCell id="15" style="edgeStyle=none;html=1;exitX=0.5;exitY=1;exitDx=0;exitDy=0;entryX=0.5;entryY=0;entryDx=0;entryDy=0;noEdgeStyle=1;orthogonal=1;" parent="1" source="12" target="14" edge="1">
                    <mxGeometry relative="1" as="geometry">
                        <Array as="points">
                            <mxPoint x="531.6666666666666" y="1192"/>
                            <mxPoint x="690" y="1268"/>
                        </Array>
                    </mxGeometry>
                </mxCell>
                <mxCell id="18" style="edgeStyle=none;html=1;exitX=0.5;exitY=1;exitDx=0;exitDy=0;entryX=0.5;entryY=0;entryDx=0;entryDy=0;noEdgeStyle=1;orthogonal=1;" parent="1" source="12" target="17" edge="1">
                    <mxGeometry relative="1" as="geometry">
                        <Array as="points">
                            <mxPoint x="458.3333333333333" y="1192"/>
                            <mxPoint x="510" y="1268"/>
                        </Array>
                    </mxGeometry>
                </mxCell>
                <mxCell id="42" style="edgeStyle=none;html=1;exitX=0.5;exitY=1;exitDx=0;exitDy=0;entryX=0.5;entryY=0;entryDx=0;entryDy=0;noEdgeStyle=1;orthogonal=1;" parent="1" source="12" target="31" edge="1">
                    <mxGeometry relative="1" as="geometry">
                        <Array as="points">
                            <mxPoint x="495" y="1194"/>
                            <mxPoint x="600" y="1230"/>
                            <mxPoint x="600" y="1390"/>
                            <mxPoint x="760.625" y="1426"/>
                        </Array>
                    </mxGeometry>
                </mxCell>
                <mxCell id="12" value="resource_manager&lt;br&gt;文件操作，导入、管理着色器、纹理" style="rounded=0;whiteSpace=wrap;html=1;" parent="1" vertex="1">
                    <mxGeometry x="435" y="1120" width="120" height="60" as="geometry"/>
                </mxCell>
                <mxCell id="44" style="edgeStyle=none;html=1;exitX=0.5;exitY=1;exitDx=0;exitDy=0;entryX=0.5;entryY=0;entryDx=0;entryDy=0;noEdgeStyle=1;orthogonal=1;" parent="1" source="14" target="31" edge="1">
                    <mxGeometry relative="1" as="geometry">
                        <Array as="points">
                            <mxPoint x="690" y="1352"/>
                            <mxPoint x="774.375" y="1424"/>
                        </Array>
                    </mxGeometry>
                </mxCell>
                <mxCell id="14" value="shader&lt;br&gt;编译着色器、设置uniform" style="rounded=0;whiteSpace=wrap;html=1;" parent="1" vertex="1">
                    <mxGeometry x="630" y="1280" width="120" height="60" as="geometry"/>
                </mxCell>
                <mxCell id="46" style="edgeStyle=none;html=1;exitX=0.5;exitY=1;exitDx=0;exitDy=0;entryX=0.5;entryY=0;entryDx=0;entryDy=0;noEdgeStyle=1;orthogonal=1;" parent="1" source="17" target="31" edge="1">
                    <mxGeometry relative="1" as="geometry">
                        <Array as="points">
                            <mxPoint x="510" y="1352"/>
                            <mxPoint x="746.875" y="1428"/>
                        </Array>
                    </mxGeometry>
                </mxCell>
                <mxCell id="17" value="texture&lt;br&gt;编译纹理" style="rounded=0;whiteSpace=wrap;html=1;" parent="1" vertex="1">
                    <mxGeometry x="450" y="1280" width="120" height="60" as="geometry"/>
                </mxCell>
                <mxCell id="37" style="edgeStyle=none;html=1;exitX=0.5;exitY=1;exitDx=0;exitDy=0;entryX=0.5;entryY=0;entryDx=0;entryDy=0;noEdgeStyle=1;orthogonal=1;" parent="1" source="19" target="31" edge="1">
                    <mxGeometry relative="1" as="geometry">
                        <Array as="points">
                            <mxPoint x="900" y="1352"/>
                            <mxPoint x="815.625" y="1424"/>
                        </Array>
                    </mxGeometry>
                </mxCell>
                <mxCell id="19" value="object&lt;br&gt;基本对象基类" style="rounded=0;whiteSpace=wrap;html=1;" parent="1" vertex="1">
                    <mxGeometry x="840" y="1280" width="120" height="60" as="geometry"/>
                </mxCell>
                <mxCell id="22" style="edgeStyle=none;html=1;exitX=0.5;exitY=1;exitDx=0;exitDy=0;entryX=0.5;entryY=0;entryDx=0;entryDy=0;noEdgeStyle=1;orthogonal=1;" parent="1" source="20" target="12" edge="1">
                    <mxGeometry relative="1" as="geometry">
                        <Array as="points">
                            <mxPoint x="452.5" y="1032"/>
                            <mxPoint x="531.6666666666666" y="1108"/>
                        </Array>
                    </mxGeometry>
                </mxCell>
                <mxCell id="38" style="edgeStyle=none;html=1;exitX=0.5;exitY=1;exitDx=0;exitDy=0;entryX=0.5;entryY=0;entryDx=0;entryDy=0;noEdgeStyle=1;orthogonal=1;" parent="1" source="20" target="31" edge="1">
                    <mxGeometry relative="1" as="geometry">
                        <Array as="points">
                            <mxPoint x="507.5" y="1032"/>
                            <mxPoint x="630" y="1070"/>
                            <mxPoint x="630" y="1230"/>
                            <mxPoint x="780" y="1230"/>
                            <mxPoint x="780" y="1390"/>
                            <mxPoint x="788.125" y="1422"/>
                        </Array>
                    </mxGeometry>
                </mxCell>
                <mxCell id="20" value="renderer&lt;br&gt;渲染" style="rounded=0;whiteSpace=wrap;html=1;" parent="1" vertex="1">
                    <mxGeometry x="420" y="960" width="120" height="60" as="geometry"/>
                </mxCell>
                <mxCell id="33" style="edgeStyle=none;html=1;exitX=0.5;exitY=1;exitDx=0;exitDy=0;entryX=0.5;entryY=0;entryDx=0;entryDy=0;noEdgeStyle=1;orthogonal=1;startArrow=none;" parent="1" source="72" target="31" edge="1">
                    <mxGeometry relative="1" as="geometry">
                        <Array as="points">
                            <mxPoint x="776.25" y="714"/>
                            <mxPoint x="885" y="750"/>
                            <mxPoint x="885" y="910"/>
                            <mxPoint x="690" y="910"/>
                            <mxPoint x="690" y="1070"/>
                            <mxPoint x="885" y="1070"/>
                            <mxPoint x="885" y="1230"/>
                            <mxPoint x="990" y="1230"/>
                            <mxPoint x="990" y="1390"/>
                            <mxPoint x="829.375" y="1426"/>
                        </Array>
                    </mxGeometry>
                </mxCell>
                <mxCell id="51" style="edgeStyle=none;html=1;exitX=0.5;exitY=1;exitDx=0;exitDy=0;entryX=0.5;entryY=0;entryDx=0;entryDy=0;noEdgeStyle=1;orthogonal=1;" parent="1" source="25" target="47" edge="1">
                    <mxGeometry relative="1" as="geometry">
                        <Array as="points">
                            <mxPoint x="693.3333333333334" y="552"/>
                            <mxPoint x="700" y="590"/>
                            <mxPoint x="700" y="750"/>
                            <mxPoint x="598.75" y="786"/>
                        </Array>
                    </mxGeometry>
                </mxCell>
                <mxCell id="106" style="edgeStyle=none;html=1;exitX=0.5;exitY=1;exitDx=0;exitDy=0;entryX=0.5;entryY=0;entryDx=0;entryDy=0;noEdgeStyle=1;orthogonal=1;" edge="1" parent="1" source="25" target="102">
                    <mxGeometry relative="1" as="geometry">
                        <Array as="points">
                            <mxPoint x="766.6666666666666" y="552"/>
                            <mxPoint x="912.5" y="628"/>
                        </Array>
                    </mxGeometry>
                </mxCell>
                <mxCell id="111" style="edgeStyle=none;html=1;exitX=0.5;exitY=1;exitDx=0;exitDy=0;entryX=0.5;entryY=0;entryDx=0;entryDy=0;" edge="1" parent="1" source="25" target="108">
                    <mxGeometry relative="1" as="geometry"/>
                </mxCell>
                <mxCell id="25" value="brick" style="rounded=0;whiteSpace=wrap;html=1;" parent="1" vertex="1">
                    <mxGeometry x="670" y="480" width="120" height="60" as="geometry"/>
                </mxCell>
                <mxCell id="29" style="edgeStyle=none;html=1;exitX=0.5;exitY=1;exitDx=0;exitDy=0;entryX=0.5;entryY=0;entryDx=0;entryDy=0;noEdgeStyle=1;orthogonal=1;" parent="1" source="28" target="25" edge="1">
                    <mxGeometry relative="1" as="geometry">
                        <Array as="points">
                            <mxPoint x="666.6666666666666" y="392"/>
                            <mxPoint x="730" y="468"/>
                        </Array>
                    </mxGeometry>
                </mxCell>
                <mxCell id="30" style="edgeStyle=none;html=1;exitX=0.5;exitY=1;exitDx=0;exitDy=0;entryX=0.5;entryY=0;entryDx=0;entryDy=0;noEdgeStyle=1;orthogonal=1;" parent="1" source="28" target="12" edge="1">
                    <mxGeometry relative="1" as="geometry">
                        <Array as="points">
                            <mxPoint x="593.3333333333334" y="392"/>
                            <mxPoint x="490" y="430"/>
                            <mxPoint x="490" y="590"/>
                            <mxPoint x="390" y="590"/>
                            <mxPoint x="390" y="750"/>
                            <mxPoint x="390" y="750"/>
                            <mxPoint x="390" y="910"/>
                            <mxPoint x="390" y="910"/>
                            <mxPoint x="390" y="1070"/>
                            <mxPoint x="495" y="1106"/>
                        </Array>
                    </mxGeometry>
                </mxCell>
                <mxCell id="36" style="edgeStyle=none;html=1;exitX=0.5;exitY=1;exitDx=0;exitDy=0;entryX=0.5;entryY=0;entryDx=0;entryDy=0;noEdgeStyle=1;orthogonal=1;" parent="1" source="28" target="31" edge="1">
                    <mxGeometry relative="1" as="geometry">
                        <Array as="points">
                            <mxPoint x="630" y="394"/>
                            <mxPoint x="520" y="430"/>
                            <mxPoint x="520" y="590"/>
                            <mxPoint x="520" y="590"/>
                            <mxPoint x="520" y="750"/>
                            <mxPoint x="495" y="750"/>
                            <mxPoint x="495" y="910"/>
                            <mxPoint x="570" y="910"/>
                            <mxPoint x="570" y="1070"/>
                            <mxPoint x="690" y="1070"/>
                            <mxPoint x="690" y="1230"/>
                            <mxPoint x="810" y="1230"/>
                            <mxPoint x="810" y="1390"/>
                            <mxPoint x="801.875" y="1422"/>
                        </Array>
                    </mxGeometry>
                </mxCell>
                <mxCell id="28" value="level&lt;br&gt;关卡导入、管理" style="rounded=0;whiteSpace=wrap;html=1;" parent="1" vertex="1">
                    <mxGeometry x="570" y="320" width="120" height="60" as="geometry"/>
                </mxCell>
                <mxCell id="31" value="mString&lt;br&gt;字符串管理" style="rounded=0;whiteSpace=wrap;html=1;" parent="1" vertex="1">
                    <mxGeometry x="735" y="1440" width="120" height="60" as="geometry"/>
                </mxCell>
                <mxCell id="32" value="check&lt;br&gt;宏管理" style="rounded=0;whiteSpace=wrap;html=1;" parent="1" vertex="1">
                    <mxGeometry x="180" width="120" height="60" as="geometry"/>
                </mxCell>
                <mxCell id="48" style="edgeStyle=none;html=1;exitX=0.5;exitY=1;exitDx=0;exitDy=0;entryX=0.5;entryY=0;entryDx=0;entryDy=0;noEdgeStyle=1;orthogonal=1;" parent="1" source="47" target="19" edge="1">
                    <mxGeometry relative="1" as="geometry">
                        <Array as="points">
                            <mxPoint x="612.5" y="872"/>
                            <mxPoint x="600" y="910"/>
                            <mxPoint x="600" y="1070"/>
                            <mxPoint x="795" y="1070"/>
                            <mxPoint x="795" y="1230"/>
                            <mxPoint x="886.25" y="1266"/>
                        </Array>
                    </mxGeometry>
                </mxCell>
                <mxCell id="49" style="edgeStyle=none;html=1;exitX=0.5;exitY=1;exitDx=0;exitDy=0;entryX=0.5;entryY=0;entryDx=0;entryDy=0;noEdgeStyle=1;orthogonal=1;" parent="1" source="47" target="20" edge="1">
                    <mxGeometry relative="1" as="geometry">
                        <Array as="points">
                            <mxPoint x="557.5" y="872"/>
                            <mxPoint x="507.5" y="948"/>
                        </Array>
                    </mxGeometry>
                </mxCell>
                <mxCell id="47" value="renderObj&lt;br&gt;管理渲染的变量和函数" style="rounded=0;whiteSpace=wrap;html=1;" parent="1" vertex="1">
                    <mxGeometry x="525" y="800" width="120" height="60" as="geometry"/>
                </mxCell>
                <mxCell id="54" style="edgeStyle=none;html=1;exitX=0.5;exitY=1;exitDx=0;exitDy=0;entryX=0.5;entryY=0;entryDx=0;entryDy=0;noEdgeStyle=1;orthogonal=1;" parent="1" source="53" target="47" edge="1">
                    <mxGeometry relative="1" as="geometry">
                        <Array as="points">
                            <mxPoint x="764.1666666666666" y="392"/>
                            <mxPoint x="550" y="430"/>
                            <mxPoint x="550" y="590"/>
                            <mxPoint x="550" y="590"/>
                            <mxPoint x="550" y="750"/>
                            <mxPoint x="543.75" y="788"/>
                        </Array>
                    </mxGeometry>
                </mxCell>
                <mxCell id="61" style="edgeStyle=none;html=1;exitX=0.5;exitY=1;exitDx=0;exitDy=0;entryX=0.5;entryY=0;entryDx=0;entryDy=0;noEdgeStyle=1;orthogonal=1;" parent="1" source="53" target="57" edge="1">
                    <mxGeometry relative="1" as="geometry">
                        <Array as="points">
                            <mxPoint x="782.5" y="394"/>
                            <mxPoint x="580" y="430"/>
                            <mxPoint x="580" y="590"/>
                            <mxPoint x="640" y="590"/>
                            <mxPoint x="640" y="750"/>
                            <mxPoint x="765" y="788"/>
                        </Array>
                    </mxGeometry>
                </mxCell>
                <mxCell id="69" style="edgeStyle=none;html=1;exitX=0.5;exitY=1;exitDx=0;exitDy=0;entryX=0.5;entryY=0;entryDx=0;entryDy=0;noEdgeStyle=1;orthogonal=1;" parent="1" source="53" target="63" edge="1">
                    <mxGeometry relative="1" as="geometry">
                        <Array as="points">
                            <mxPoint x="837.5000000000001" y="394"/>
                            <mxPoint x="1005" y="430"/>
                            <mxPoint x="1005" y="590"/>
                            <mxPoint x="1035" y="590"/>
                            <mxPoint x="1035" y="750"/>
                            <mxPoint x="1021.25" y="786"/>
                        </Array>
                    </mxGeometry>
                </mxCell>
                <mxCell id="71" style="edgeStyle=none;html=1;exitX=0.5;exitY=1;exitDx=0;exitDy=0;entryX=0.5;entryY=0;entryDx=0;entryDy=0;noEdgeStyle=1;orthogonal=1;" parent="1" source="53" target="63" edge="1">
                    <mxGeometry relative="1" as="geometry">
                        <Array as="points">
                            <mxPoint x="855.8333333333335" y="394"/>
                            <mxPoint x="1015" y="430"/>
                            <mxPoint x="1015" y="590"/>
                            <mxPoint x="1045" y="590"/>
                            <mxPoint x="1045" y="750"/>
                            <mxPoint x="1048.75" y="786"/>
                        </Array>
                    </mxGeometry>
                </mxCell>
                <mxCell id="77" style="edgeStyle=none;html=1;exitX=0.5;exitY=1;exitDx=0;exitDy=0;entryX=0.5;entryY=0;entryDx=0;entryDy=0;noEdgeStyle=1;orthogonal=1;" parent="1" source="53" target="72" edge="1">
                    <mxGeometry relative="1" as="geometry">
                        <Array as="points">
                            <mxPoint x="800.8333333333334" y="396"/>
                            <mxPoint x="820" y="430"/>
                            <mxPoint x="820" y="590"/>
                            <mxPoint x="790" y="626"/>
                        </Array>
                    </mxGeometry>
                </mxCell>
                <mxCell id="101" style="edgeStyle=none;html=1;exitX=0.5;exitY=1;exitDx=0;exitDy=0;entryX=0.5;entryY=0;entryDx=0;entryDy=0;noEdgeStyle=1;orthogonal=1;" parent="1" source="53" target="98" edge="1">
                    <mxGeometry relative="1" as="geometry">
                        <Array as="points">
                            <mxPoint x="819.1666666666667" y="396"/>
                            <mxPoint x="882.5" y="468"/>
                        </Array>
                    </mxGeometry>
                </mxCell>
                <mxCell id="53" value="player&lt;br&gt;玩家操作" style="rounded=0;whiteSpace=wrap;html=1;" parent="1" vertex="1">
                    <mxGeometry x="750" y="320" width="120" height="60" as="geometry"/>
                </mxCell>
                <mxCell id="58" style="edgeStyle=none;html=1;exitX=0.5;exitY=1;exitDx=0;exitDy=0;entryX=0.5;entryY=0;entryDx=0;entryDy=0;noEdgeStyle=1;orthogonal=1;" parent="1" source="57" target="19" edge="1">
                    <mxGeometry relative="1" as="geometry">
                        <Array as="points">
                            <mxPoint x="737.5" y="872"/>
                            <mxPoint x="660" y="910"/>
                            <mxPoint x="660" y="1070"/>
                            <mxPoint x="765" y="1070"/>
                            <mxPoint x="765" y="1230"/>
                            <mxPoint x="858.75" y="1268"/>
                        </Array>
                    </mxGeometry>
                </mxCell>
                <mxCell id="59" style="edgeStyle=none;html=1;exitX=0.5;exitY=1;exitDx=0;exitDy=0;entryX=0.5;entryY=0;entryDx=0;entryDy=0;noEdgeStyle=1;orthogonal=1;" parent="1" source="57" target="10" edge="1">
                    <mxGeometry relative="1" as="geometry">
                        <Array as="points">
                            <mxPoint x="792.5" y="872"/>
                            <mxPoint x="752.5" y="948"/>
                        </Array>
                    </mxGeometry>
                </mxCell>
                <mxCell id="57" value="keyboardObj&lt;br&gt;管理键盘输入注册" style="rounded=0;whiteSpace=wrap;html=1;" parent="1" vertex="1">
                    <mxGeometry x="705" y="800" width="120" height="60" as="geometry"/>
                </mxCell>
                <mxCell id="64" style="edgeStyle=none;html=1;exitX=0.5;exitY=1;exitDx=0;exitDy=0;entryX=0.5;entryY=0;entryDx=0;entryDy=0;noEdgeStyle=1;orthogonal=1;" parent="1" source="63" target="19" edge="1">
                    <mxGeometry relative="1" as="geometry">
                        <Array as="points">
                            <mxPoint x="1007.5" y="872"/>
                            <mxPoint x="870" y="910"/>
                            <mxPoint x="870" y="1070"/>
                            <mxPoint x="855" y="1070"/>
                            <mxPoint x="855" y="1230"/>
                            <mxPoint x="941.25" y="1268"/>
                        </Array>
                    </mxGeometry>
                </mxCell>
                <mxCell id="68" style="edgeStyle=none;html=1;exitX=0.5;exitY=1;exitDx=0;exitDy=0;entryX=0.5;entryY=0;entryDx=0;entryDy=0;noEdgeStyle=1;orthogonal=1;" parent="1" source="63" target="66" edge="1">
                    <mxGeometry relative="1" as="geometry">
                        <Array as="points">
                            <mxPoint x="1062.5" y="872"/>
                            <mxPoint x="1112.5" y="948"/>
                        </Array>
                    </mxGeometry>
                </mxCell>
                <mxCell id="63" value="moveObj&lt;br&gt;管理运动类" style="rounded=0;whiteSpace=wrap;html=1;" parent="1" vertex="1">
                    <mxGeometry x="975" y="800" width="120" height="60" as="geometry"/>
                </mxCell>
                <mxCell id="97" style="edgeStyle=none;html=1;exitX=0.5;exitY=1;exitDx=0;exitDy=0;entryX=0.5;entryY=0;entryDx=0;entryDy=0;noEdgeStyle=1;orthogonal=1;" parent="1" source="66" target="91" edge="1">
                    <mxGeometry relative="1" as="geometry">
                        <Array as="points">
                            <mxPoint x="1140" y="1032"/>
                            <mxPoint x="1005" y="1070"/>
                            <mxPoint x="1005" y="1230"/>
                            <mxPoint x="1102" y="1266"/>
                        </Array>
                    </mxGeometry>
                </mxCell>
                <mxCell id="66" value="movement&lt;br&gt;进行运动、碰撞处理" style="rounded=0;whiteSpace=wrap;html=1;" parent="1" vertex="1">
                    <mxGeometry x="1080" y="960" width="120" height="60" as="geometry"/>
                </mxCell>
                <mxCell id="73" value="" style="edgeStyle=none;html=1;exitX=0.5;exitY=1;exitDx=0;exitDy=0;entryX=0.5;entryY=0;entryDx=0;entryDy=0;noEdgeStyle=1;orthogonal=1;endArrow=none;" parent="1" source="25" target="72" edge="1">
                    <mxGeometry relative="1" as="geometry">
                        <Array as="points">
                            <mxPoint x="730" y="554"/>
                            <mxPoint x="753.3333333333334" y="628"/>
                        </Array>
                        <mxPoint x="675" y="540" as="sourcePoint"/>
                        <mxPoint x="915" y="1280" as="targetPoint"/>
                    </mxGeometry>
                </mxCell>
                <mxCell id="74" style="edgeStyle=none;html=1;exitX=0.5;exitY=1;exitDx=0;exitDy=0;entryX=0.5;entryY=0;entryDx=0;entryDy=0;noEdgeStyle=1;orthogonal=1;" parent="1" source="72" target="19" edge="1">
                    <mxGeometry relative="1" as="geometry">
                        <Array as="points">
                            <mxPoint x="748.75" y="712"/>
                            <mxPoint x="675" y="750"/>
                            <mxPoint x="675" y="910"/>
                            <mxPoint x="630" y="910"/>
                            <mxPoint x="630" y="1070"/>
                            <mxPoint x="825" y="1070"/>
                            <mxPoint x="825" y="1230"/>
                            <mxPoint x="913.75" y="1266"/>
                        </Array>
                    </mxGeometry>
                </mxCell>
                <mxCell id="89" style="edgeStyle=none;html=1;exitX=0.5;exitY=1;exitDx=0;exitDy=0;entryX=0.5;entryY=0;entryDx=0;entryDy=0;noEdgeStyle=1;orthogonal=1;" parent="1" source="72" target="84" edge="1">
                    <mxGeometry relative="1" as="geometry">
                        <Array as="points">
                            <mxPoint x="831.25" y="712"/>
                            <mxPoint x="945" y="750"/>
                            <mxPoint x="945" y="910"/>
                            <mxPoint x="962.5" y="948"/>
                        </Array>
                    </mxGeometry>
                </mxCell>
                <mxCell id="72" value="collisionObj&lt;br&gt;管理类碰撞检测和处理" style="rounded=0;whiteSpace=wrap;html=1;" parent="1" vertex="1">
                    <mxGeometry x="730" y="640" width="120" height="60" as="geometry"/>
                </mxCell>
                <mxCell id="80" style="edgeStyle=none;html=1;exitX=0.5;exitY=1;exitDx=0;exitDy=0;entryX=0.5;entryY=0;entryDx=0;entryDy=0;noEdgeStyle=1;orthogonal=1;" parent="1" source="79" target="63" edge="1">
                    <mxGeometry relative="1" as="geometry">
                        <Array as="points">
                            <mxPoint x="1004" y="392"/>
                            <mxPoint x="1100" y="430"/>
                            <mxPoint x="1100" y="590"/>
                            <mxPoint x="1100" y="590"/>
                            <mxPoint x="1100" y="750"/>
                            <mxPoint x="1076.25" y="786"/>
                        </Array>
                    </mxGeometry>
                </mxCell>
                <mxCell id="81" style="edgeStyle=none;html=1;exitX=0.5;exitY=1;exitDx=0;exitDy=0;entryX=0.5;entryY=0;entryDx=0;entryDy=0;noEdgeStyle=1;orthogonal=1;" parent="1" source="79" target="47" edge="1">
                    <mxGeometry relative="1" as="geometry">
                        <Array as="points">
                            <mxPoint x="916" y="392"/>
                            <mxPoint x="640" y="430"/>
                            <mxPoint x="640" y="590"/>
                            <mxPoint x="610" y="590"/>
                            <mxPoint x="610" y="750"/>
                            <mxPoint x="571.25" y="786"/>
                        </Array>
                    </mxGeometry>
                </mxCell>
                <mxCell id="82" style="edgeStyle=none;html=1;exitX=0.5;exitY=1;exitDx=0;exitDy=0;entryX=0.5;entryY=0;entryDx=0;entryDy=0;noEdgeStyle=1;orthogonal=1;" parent="1" source="79" target="72" edge="1">
                    <mxGeometry relative="1" as="geometry">
                        <Array as="points">
                            <mxPoint x="960" y="396"/>
                            <mxPoint x="1040" y="430"/>
                            <mxPoint x="1040" y="590"/>
                            <mxPoint x="826.6666666666666" y="628"/>
                        </Array>
                    </mxGeometry>
                </mxCell>
                <mxCell id="100" style="edgeStyle=none;html=1;exitX=0.5;exitY=1;exitDx=0;exitDy=0;entryX=0.5;entryY=0;entryDx=0;entryDy=0;noEdgeStyle=1;orthogonal=1;" parent="1" source="79" target="98" edge="1">
                    <mxGeometry relative="1" as="geometry">
                        <Array as="points">
                            <mxPoint x="938" y="394"/>
                            <mxPoint x="937.5" y="468"/>
                        </Array>
                    </mxGeometry>
                </mxCell>
                <mxCell id="107" style="edgeStyle=none;html=1;exitX=0.5;exitY=1;exitDx=0;exitDy=0;entryX=0.5;entryY=0;entryDx=0;entryDy=0;noEdgeStyle=1;orthogonal=1;" edge="1" parent="1" source="79" target="102">
                    <mxGeometry relative="1" as="geometry">
                        <Array as="points">
                            <mxPoint x="982" y="394"/>
                            <mxPoint x="1070" y="430"/>
                            <mxPoint x="1070" y="590"/>
                            <mxPoint x="967.5" y="628"/>
                        </Array>
                    </mxGeometry>
                </mxCell>
                <mxCell id="110" style="edgeStyle=none;html=1;exitX=0.5;exitY=1;exitDx=0;exitDy=0;entryX=0.5;entryY=0;entryDx=0;entryDy=0;" edge="1" parent="1" source="79" target="108">
                    <mxGeometry relative="1" as="geometry"/>
                </mxCell>
                <mxCell id="79" value="ball&lt;br&gt;球" style="rounded=0;whiteSpace=wrap;html=1;" parent="1" vertex="1">
                    <mxGeometry x="900" y="320" width="120" height="60" as="geometry"/>
                </mxCell>
                <mxCell id="90" style="edgeStyle=none;html=1;exitX=0.5;exitY=0;exitDx=0;exitDy=0;entryX=0.5;entryY=1;entryDx=0;entryDy=0;noEdgeStyle=1;orthogonal=1;" parent="1" source="84" target="3" edge="1">
                    <mxGeometry relative="1" as="geometry">
                        <Array as="points">
                            <mxPoint x="1017.5" y="948"/>
                            <mxPoint x="1125" y="910"/>
                            <mxPoint x="1125" y="750"/>
                            <mxPoint x="1125" y="750"/>
                            <mxPoint x="1125" y="590"/>
                            <mxPoint x="1130" y="590"/>
                            <mxPoint x="1130" y="430"/>
                            <mxPoint x="1130" y="430"/>
                            <mxPoint x="1130" y="270"/>
                            <mxPoint x="799.7453703703703" y="234"/>
                        </Array>
                    </mxGeometry>
                </mxCell>
                <mxCell id="96" style="edgeStyle=none;html=1;exitX=0.5;exitY=1;exitDx=0;exitDy=0;entryX=0.5;entryY=0;entryDx=0;entryDy=0;noEdgeStyle=1;orthogonal=1;" parent="1" source="84" target="91" edge="1">
                    <mxGeometry relative="1" as="geometry">
                        <Array as="points">
                            <mxPoint x="990" y="1032"/>
                            <mxPoint x="975" y="1070"/>
                            <mxPoint x="975" y="1230"/>
                            <mxPoint x="1080" y="1264"/>
                        </Array>
                    </mxGeometry>
                </mxCell>
                <mxCell id="84" value="collision&lt;br&gt;碰撞检测和处理" style="rounded=0;whiteSpace=wrap;html=1;" parent="1" vertex="1">
                    <mxGeometry x="930" y="960" width="120" height="60" as="geometry"/>
                </mxCell>
                <mxCell id="92" style="edgeStyle=none;html=1;exitX=0.5;exitY=1;exitDx=0;exitDy=0;entryX=0.5;entryY=0;entryDx=0;entryDy=0;noEdgeStyle=1;orthogonal=1;" parent="1" source="91" target="31" edge="1">
                    <mxGeometry relative="1" as="geometry">
                        <Array as="points">
                            <mxPoint x="1080" y="1352"/>
                            <mxPoint x="843.125" y="1428"/>
                        </Array>
                    </mxGeometry>
                </mxCell>
                <mxCell id="95" value="" style="edgeStyle=none;html=1;exitX=0.5;exitY=1;exitDx=0;exitDy=0;entryX=0.5;entryY=0;entryDx=0;entryDy=0;noEdgeStyle=1;orthogonal=1;endArrow=none;" parent="1" source="72" target="91" edge="1">
                    <mxGeometry relative="1" as="geometry">
                        <Array as="points">
                            <mxPoint x="803.75" y="714"/>
                            <mxPoint x="915" y="750"/>
                            <mxPoint x="915" y="910"/>
                            <mxPoint x="900" y="910"/>
                            <mxPoint x="900" y="1070"/>
                            <mxPoint x="945" y="1070"/>
                            <mxPoint x="945" y="1230"/>
                            <mxPoint x="1058" y="1266"/>
                        </Array>
                        <mxPoint x="915" y="700" as="sourcePoint"/>
                        <mxPoint x="720" y="1280" as="targetPoint"/>
                    </mxGeometry>
                </mxCell>
                <mxCell id="91" value="logger&lt;br&gt;管理引擎注册和数据" style="rounded=0;whiteSpace=wrap;html=1;" parent="1" vertex="1">
                    <mxGeometry x="1020" y="1280" width="120" height="60" as="geometry"/>
                </mxCell>
                <mxCell id="98" value="keyval&lt;br&gt;管理按键宏定义" style="rounded=0;whiteSpace=wrap;html=1;" parent="1" vertex="1">
                    <mxGeometry x="850" y="480" width="120" height="60" as="geometry"/>
                </mxCell>
                <mxCell id="103" style="edgeStyle=none;html=1;exitX=0.5;exitY=1;exitDx=0;exitDy=0;entryX=0.5;entryY=0;entryDx=0;entryDy=0;noEdgeStyle=1;orthogonal=1;" parent="1" source="102" target="47" edge="1">
                    <mxGeometry relative="1" as="geometry">
                        <Array as="points">
                            <mxPoint x="903.3333333333334" y="712"/>
                            <mxPoint x="626.25" y="788"/>
                        </Array>
                    </mxGeometry>
                </mxCell>
                <mxCell id="104" style="edgeStyle=none;html=1;exitX=0.5;exitY=1;exitDx=0;exitDy=0;entryX=0.5;entryY=0;entryDx=0;entryDy=0;noEdgeStyle=1;orthogonal=1;" parent="1" source="102" target="63" edge="1">
                    <mxGeometry relative="1" as="geometry">
                        <Array as="points">
                            <mxPoint x="940" y="714"/>
                            <mxPoint x="993.75" y="788"/>
                        </Array>
                    </mxGeometry>
                </mxCell>
                <mxCell id="105" style="edgeStyle=none;html=1;exitX=0.5;exitY=1;exitDx=0;exitDy=0;entryX=0.5;entryY=0;entryDx=0;entryDy=0;noEdgeStyle=1;orthogonal=1;" parent="1" source="102" target="91" edge="1">
                    <mxGeometry relative="1" as="geometry">
                        <Array as="points">
                            <mxPoint x="976.6666666666666" y="712"/>
                            <mxPoint x="1155" y="750"/>
                            <mxPoint x="1155" y="910"/>
                            <mxPoint x="1230" y="910"/>
                            <mxPoint x="1230" y="1070"/>
                            <mxPoint x="1230" y="1070"/>
                            <mxPoint x="1230" y="1230"/>
                            <mxPoint x="1124" y="1268"/>
                        </Array>
                    </mxGeometry>
                </mxCell>
                <mxCell id="102" value="particle_generator&lt;br&gt;管理粒子" style="rounded=0;whiteSpace=wrap;html=1;" parent="1" vertex="1">
                    <mxGeometry x="880" y="640" width="120" height="60" as="geometry"/>
                </mxCell>
                <mxCell id="108" value="sound_engine&lt;br&gt;音乐管理" style="rounded=0;whiteSpace=wrap;html=1;" vertex="1" parent="1">
                    <mxGeometry x="1190" y="380" width="120" height="60" as="geometry"/>
                </mxCell>
            </root>
        </mxGraphModel>
    </diagram>
</mxfile>